<?xml version="1.0" encoding="UTF-8"?>
<!--Generator: Apple Native CoreSVG 175-->
<!DOCTYPE svg
PUBLIC "-//W3C//DTD SVG 1.1//EN"
       "http://www.w3.org/Graphics/SVG/1.1/DTD/svg11.dtd">
<svg version="1.1" xmlns="http://www.w3.org/2000/svg" xmlns:xlink="http://www.w3.org/1999/xlink" width="3300" height="2200">
 <!--glyph: "uni100920.medium", point size: 100.0, font version: "17.3d3e1", template writer version: "65.1"-->
 <g id="Notes">
  <rect height="2200" id="artboard" style="fill:white;opacity:1" width="3300" x="0" y="0"/>
  <line style="fill:none;stroke:black;opacity:1;stroke-width:0.5;" x1="263" x2="3036" y1="292" y2="292"/>
  <text style="stroke:none;fill:black;font-family:sans-serif;font-size:13;font-weight:bold;" transform="matrix(1 0 0 1 263 322)">Weight/Scale Variations</text>
  <text style="stroke:none;fill:black;font-family:sans-serif;font-size:13;text-anchor:middle;" transform="matrix(1 0 0 1 559.711 322)">Ultralight</text>
  <text style="stroke:none;fill:black;font-family:sans-serif;font-size:13;text-anchor:middle;" transform="matrix(1 0 0 1 856.422 322)">Thin</text>
  <text style="stroke:none;fill:black;font-family:sans-serif;font-size:13;text-anchor:middle;" transform="matrix(1 0 0 1 1153.13 322)">Light</text>
  <text style="stroke:none;fill:black;font-family:sans-serif;font-size:13;text-anchor:middle;" transform="matrix(1 0 0 1 1449.84 322)">Regular</text>
  <text style="stroke:none;fill:black;font-family:sans-serif;font-size:13;text-anchor:middle;" transform="matrix(1 0 0 1 1746.56 322)">Medium</text>
  <text style="stroke:none;fill:black;font-family:sans-serif;font-size:13;text-anchor:middle;" transform="matrix(1 0 0 1 2043.27 322)">Semibold</text>
  <text style="stroke:none;fill:black;font-family:sans-serif;font-size:13;text-anchor:middle;" transform="matrix(1 0 0 1 2339.98 322)">Bold</text>
  <text style="stroke:none;fill:black;font-family:sans-serif;font-size:13;text-anchor:middle;" transform="matrix(1 0 0 1 2636.69 322)">Heavy</text>
  <text style="stroke:none;fill:black;font-family:sans-serif;font-size:13;text-anchor:middle;" transform="matrix(1 0 0 1 2933.4 322)">Black</text>
  <line style="fill:none;stroke:black;opacity:1;stroke-width:0.5;" x1="263" x2="3036" y1="1903" y2="1903"/>
  <g transform="matrix(1 0 0 1 263 1933)">
   <path d="M9.24805 0.830078Q10.8691 0.830078 12.2949 0.214844Q13.7207-0.400391 14.8096-1.49414Q15.8984-2.58789 16.5186-4.01367Q17.1387-5.43945 17.1387-7.05078Q17.1387-8.66211 16.5186-10.0879Q15.8984-11.5137 14.8047-12.6074Q13.7109-13.7012 12.2852-14.3164Q10.8594-14.9316 9.23828-14.9316Q7.62695-14.9316 6.20117-14.3164Q4.77539-13.7012 3.69141-12.6074Q2.60742-11.5137 1.9873-10.0879Q1.36719-8.66211 1.36719-7.05078Q1.36719-5.43945 1.9873-4.01367Q2.60742-2.58789 3.69629-1.49414Q4.78516-0.400391 6.21094 0.214844Q7.63672 0.830078 9.24805 0.830078ZM9.24805-0.654297Q7.91992-0.654297 6.7627-1.14746Q5.60547-1.64062 4.73145-2.51953Q3.85742-3.39844 3.36426-4.56055Q2.87109-5.72266 2.87109-7.05078Q2.87109-8.37891 3.35938-9.54102Q3.84766-10.7031 4.72168-11.582Q5.5957-12.4609 6.75293-12.9541Q7.91016-13.4473 9.23828-13.4473Q10.5762-13.4473 11.7334-12.9541Q12.8906-12.4609 13.7695-11.582Q14.6484-10.7031 15.1465-9.54102Q15.6445-8.37891 15.6445-7.05078Q15.6445-5.72266 15.1514-4.56055Q14.6582-3.39844 13.7842-2.51953Q12.9102-1.64062 11.748-1.14746Q10.5859-0.654297 9.24805-0.654297ZM5.6543-7.05078Q5.6543-6.72852 5.85938-6.52832Q6.06445-6.32812 6.40625-6.32812L8.51562-6.32812L8.51562-4.20898Q8.51562-3.88672 8.71094-3.67676Q8.90625-3.4668 9.23828-3.4668Q9.56055-3.4668 9.77051-3.67676Q9.98047-3.88672 9.98047-4.20898L9.98047-6.32812L12.0898-6.32812Q12.4219-6.32812 12.627-6.52832Q12.832-6.72852 12.832-7.05078Q12.832-7.38281 12.627-7.58789Q12.4219-7.79297 12.0898-7.79297L9.98047-7.79297L9.98047-9.90234Q9.98047-10.2344 9.77051-10.4443Q9.56055-10.6543 9.23828-10.6543Q8.90625-10.6543 8.71094-10.4443Q8.51562-10.2344 8.51562-9.90234L8.51562-7.79297L6.40625-7.79297Q6.06445-7.79297 5.85938-7.58789Q5.6543-7.38281 5.6543-7.05078Z"/>
  </g>
  <g transform="matrix(1 0 0 1 281.867 1933)">
   <path d="M11.709 2.91016Q13.75 2.91016 15.5518 2.12891Q17.3535 1.34766 18.7305-0.0292969Q20.1074-1.40625 20.8887-3.20801Q21.6699-5.00977 21.6699-7.05078Q21.6699-9.0918 20.8887-10.8936Q20.1074-12.6953 18.7305-14.0723Q17.3535-15.4492 15.5469-16.2305Q13.7402-17.0117 11.6992-17.0117Q9.6582-17.0117 7.85645-16.2305Q6.05469-15.4492 4.68262-14.0723Q3.31055-12.6953 2.5293-10.8936Q1.74805-9.0918 1.74805-7.05078Q1.74805-5.00977 2.5293-3.20801Q3.31055-1.40625 4.6875-0.0292969Q6.06445 1.34766 7.86621 2.12891Q9.66797 2.91016 11.709 2.91016ZM11.709 1.25Q9.98047 1.25 8.47656 0.605469Q6.97266-0.0390625 5.83496-1.17676Q4.69727-2.31445 4.05762-3.81836Q3.41797-5.32227 3.41797-7.05078Q3.41797-8.7793 4.05762-10.2832Q4.69727-11.7871 5.83008-12.9297Q6.96289-14.0723 8.4668-14.7119Q9.9707-15.3516 11.6992-15.3516Q13.4277-15.3516 14.9316-14.7119Q16.4355-14.0723 17.5781-12.9297Q18.7207-11.7871 19.3652-10.2832Q20.0098-8.7793 20.0098-7.05078Q20.0098-5.32227 19.3701-3.81836Q18.7305-2.31445 17.5928-1.17676Q16.4551-0.0390625 14.9463 0.605469Q13.4375 1.25 11.709 1.25ZM7.17773-7.05078Q7.17773-6.69922 7.41211-6.47461Q7.64648-6.25 8.01758-6.25L10.8887-6.25L10.8887-3.36914Q10.8887-2.99805 11.1133-2.76855Q11.3379-2.53906 11.6895-2.53906Q12.0605-2.53906 12.29-2.76855Q12.5195-2.99805 12.5195-3.36914L12.5195-6.25L15.4004-6.25Q15.7715-6.25 16.001-6.47461Q16.2305-6.69922 16.2305-7.05078Q16.2305-7.42188 16.001-7.65137Q15.7715-7.88086 15.4004-7.88086L12.5195-7.88086L12.5195-10.752Q12.5195-11.1328 12.29-11.3623Q12.0605-11.5918 11.6895-11.5918Q11.3379-11.5918 11.1133-11.3574Q10.8887-11.123 10.8887-10.752L10.8887-7.88086L8.01758-7.88086Q7.63672-7.88086 7.40723-7.65137Q7.17773-7.42188 7.17773-7.05078Z"/>
  </g>
  <g transform="matrix(1 0 0 1 305.646 1933)">
   <path d="M14.9707 5.66406Q17.0605 5.66406 18.96 5.01465Q20.8594 4.36523 22.4512 3.19336Q24.043 2.02148 25.2197 0.429688Q26.3965-1.16211 27.0459-3.06641Q27.6953-4.9707 27.6953-7.05078Q27.6953-9.14062 27.0459-11.04Q26.3965-12.9395 25.2197-14.5312Q24.043-16.123 22.4512-17.2998Q20.8594-18.4766 18.9551-19.126Q17.0508-19.7754 14.9609-19.7754Q12.8711-19.7754 10.9717-19.126Q9.07227-18.4766 7.48535-17.2998Q5.89844-16.123 4.72168-14.5312Q3.54492-12.9395 2.90039-11.04Q2.25586-9.14062 2.25586-7.05078Q2.25586-4.9707 2.90527-3.06641Q3.55469-1.16211 4.72656 0.429688Q5.89844 2.02148 7.49023 3.19336Q9.08203 4.36523 10.9814 5.01465Q12.8809 5.66406 14.9707 5.66406ZM14.9707 3.84766Q13.1641 3.84766 11.5283 3.2959Q9.89258 2.74414 8.53516 1.74805Q7.17773 0.751953 6.17676-0.610352Q5.17578-1.97266 4.62891-3.6084Q4.08203-5.24414 4.08203-7.05078Q4.08203-8.86719 4.62891-10.5029Q5.17578-12.1387 6.17188-13.501Q7.16797-14.8633 8.52539-15.8594Q9.88281-16.8555 11.5186-17.4023Q13.1543-17.9492 14.9609-17.9492Q16.7773-17.9492 18.4131-17.4023Q20.0488-16.8555 21.4111-15.8594Q22.7734-14.8633 23.7695-13.501Q24.7656-12.1387 25.3174-10.5029Q25.8691-8.86719 25.8691-7.05078Q25.8789-5.24414 25.332-3.6084Q24.7852-1.97266 23.7842-0.610352Q22.7832 0.751953 21.4209 1.74805Q20.0586 2.74414 18.4229 3.2959Q16.7871 3.84766 14.9707 3.84766ZM9.19922-7.05078Q9.19922-6.66992 9.45801-6.4209Q9.7168-6.17188 10.1172-6.17188L14.0625-6.17188L14.0625-2.2168Q14.0625-1.81641 14.3115-1.55762Q14.5605-1.29883 14.9512-1.29883Q15.3516-1.29883 15.6104-1.55273Q15.8691-1.80664 15.8691-2.2168L15.8691-6.17188L19.8242-6.17188Q20.2246-6.17188 20.4785-6.4209Q20.7324-6.66992 20.7324-7.05078Q20.7324-7.46094 20.4785-7.71484Q20.2246-7.96875 19.8242-7.96875L15.8691-7.96875L15.8691-11.9141Q15.8691-12.3242 15.6104-12.583Q15.3516-12.8418 14.9512-12.8418Q14.5605-12.8418 14.3115-12.583Q14.0625-12.3242 14.0625-11.9141L14.0625-7.96875L10.1172-7.96875Q9.70703-7.96875 9.45312-7.71484Q9.19922-7.46094 9.19922-7.05078Z"/>
  </g>
  <text style="stroke:none;fill:black;font-family:sans-serif;font-size:13;font-weight:bold;" transform="matrix(1 0 0 1 263 1953)">Design Variations</text>
  <text style="stroke:none;fill:black;font-family:sans-serif;font-size:13;" transform="matrix(1 0 0 1 263 1971)">Symbols are supported in up to nine weights and three scales.</text>
  <text style="stroke:none;fill:black;font-family:sans-serif;font-size:13;" transform="matrix(1 0 0 1 263 1989)">For optimal layout with text and other symbols, vertically align</text>
  <text style="stroke:none;fill:black;font-family:sans-serif;font-size:13;" transform="matrix(1 0 0 1 263 2007)">symbols with the adjacent text.</text>
  <line style="fill:none;stroke:#00AEEF;stroke-width:0.5;opacity:1.0;" x1="776" x2="776" y1="1919" y2="1933"/>
  <g transform="matrix(1 0 0 1 776 1933)">
   <path d="M3.31055 0.15625Q3.70117 0.15625 3.91602-0.00976562Q4.13086-0.175781 4.26758-0.585938L5.52734-4.0332L11.2891-4.0332L12.5488-0.585938Q12.6855-0.175781 12.9004-0.00976562Q13.1152 0.15625 13.4961 0.15625Q13.8867 0.15625 14.1162-0.0585938Q14.3457-0.273438 14.3457-0.644531Q14.3457-0.869141 14.2383-1.17188L9.6582-13.3691Q9.48242-13.8184 9.17969-14.043Q8.87695-14.2676 8.4082-14.2676Q7.5-14.2676 7.17773-13.3789L2.59766-1.16211Q2.49023-0.859375 2.49023-0.634766Q2.49023-0.263672 2.70996-0.0537109Q2.92969 0.15625 3.31055 0.15625ZM6.00586-5.51758L8.37891-12.0898L8.42773-12.0898L10.8008-5.51758Z"/>
  </g>
  <line style="fill:none;stroke:#00AEEF;stroke-width:0.5;opacity:1.0;" x1="793.197" x2="793.197" y1="1919" y2="1933"/>
  <text style="stroke:none;fill:black;font-family:sans-serif;font-size:13;font-weight:bold;" transform="matrix(1 0 0 1 776 1953)">Margins</text>
  <text style="stroke:none;fill:black;font-family:sans-serif;font-size:13;" transform="matrix(1 0 0 1 776 1971)">Leading and trailing margins on the left and right side of each symbol</text>
  <text style="stroke:none;fill:black;font-family:sans-serif;font-size:13;" transform="matrix(1 0 0 1 776 1989)">can be adjusted by modifying the x-location of the margin guidelines.</text>
  <text style="stroke:none;fill:black;font-family:sans-serif;font-size:13;" transform="matrix(1 0 0 1 776 2007)">Modifications are automatically applied proportionally to all</text>
  <text style="stroke:none;fill:black;font-family:sans-serif;font-size:13;" transform="matrix(1 0 0 1 776 2025)">scales and weights.</text>
  <g transform="matrix(1 0 0 1 1289 1933)">
   <path d="M2.8418 1.86523L4.54102 3.57422Q5.18555 4.22852 5.90332 4.17969Q6.62109 4.13086 7.31445 3.35938L18.0078-8.42773L17.041-9.4043L6.42578 2.27539Q6.16211 2.57812 5.89355 2.61719Q5.625 2.65625 5.27344 2.30469L4.10156 1.14258Q3.75 0.791016 3.79395 0.522461Q3.83789 0.253906 4.14062-0.0195312L15.6152-10.8203L14.6387-11.7871L3.04688-0.898438Q2.30469-0.214844 2.25098 0.498047Q2.19727 1.21094 2.8418 1.86523ZM9.25781-16.3281Q8.94531-16.0254 8.90625-15.6348Q8.86719-15.2441 9.04297-14.9512Q9.21875-14.6777 9.55566-14.541Q9.89258-14.4043 10.3809-14.5215Q11.4746-14.7754 12.5977-14.7314Q13.7207-14.6875 14.7949-13.9844L14.209-12.5293Q13.9551-11.9043 14.0674-11.4404Q14.1797-10.9766 14.5801-10.5664L16.875-8.25195Q17.2363-7.88086 17.5781-7.82227Q17.9199-7.76367 18.3398-7.8418L19.4043-8.03711L20.0684-7.36328L20.0293-6.80664Q20-6.43555 20.1221-6.12305Q20.2441-5.81055 20.6055-5.44922L21.3672-4.70703Q21.7285-4.3457 22.1533-4.33105Q22.5781-4.31641 22.9297-4.66797L25.8398-7.58789Q26.1914-7.93945 26.1816-8.35449Q26.1719-8.76953 25.8105-9.13086L25.0391-9.89258Q24.6875-10.2539 24.3799-10.3857Q24.0723-10.5176 23.7109-10.4883L23.1348-10.4395L22.4902-11.0742L22.7344-12.1973Q22.832-12.6172 22.6953-12.9834Q22.5586-13.3496 22.1191-13.7891L19.9219-15.9766Q18.6719-17.2168 17.2607-17.8369Q15.8496-18.457 14.4189-18.4814Q12.9883-18.5059 11.665-17.959Q10.3418-17.4121 9.25781-16.3281ZM10.752-15.957Q11.6602-16.6211 12.7002-16.9043Q13.7402-17.1875 14.8047-17.085Q15.8691-16.9824 16.8701-16.5137Q17.8711-16.0449 18.7012-15.2051L21.1328-12.793Q21.3086-12.6172 21.3525-12.4512Q21.3965-12.2852 21.3379-12.0312L21.0156-10.5469L22.5195-9.0625L23.5059-9.12109Q23.6914-9.13086 23.7891-9.09668Q23.8867-9.0625 24.0332-8.91602L24.6094-8.33984L22.168-5.89844L21.5918-6.47461Q21.4453-6.62109 21.4062-6.71875Q21.3672-6.81641 21.377-7.01172L21.4453-7.98828L19.9512-9.47266L18.4277-9.21875Q18.1836-9.16992 18.042-9.2041Q17.9004-9.23828 17.7148-9.41406L15.7129-11.416Q15.5176-11.5918 15.4932-11.7529Q15.4688-11.9141 15.5859-12.1875L16.4648-14.2773Q15.293-15.3711 13.8281-15.791Q12.3633-16.2109 10.8398-15.7617Q10.7227-15.7324 10.6885-15.8057Q10.6543-15.8789 10.752-15.957Z"/>
  </g>
  <text style="stroke:none;fill:black;font-family:sans-serif;font-size:13;font-weight:bold;" transform="matrix(1 0 0 1 1289 1953)">Exporting</text>
  <text style="stroke:none;fill:black;font-family:sans-serif;font-size:13;" transform="matrix(1 0 0 1 1289 1971)">Symbols should be outlined when exporting to ensure the</text>
  <text style="stroke:none;fill:black;font-family:sans-serif;font-size:13;" transform="matrix(1 0 0 1 1289 1989)">design is preserved when submitting to Xcode.</text>
  <text id="template-version" style="stroke:none;fill:black;font-family:sans-serif;font-size:13;text-anchor:end;" transform="matrix(1 0 0 1 3036 1933)">Template v.3.0</text>
  <text style="stroke:none;fill:black;font-family:sans-serif;font-size:13;text-anchor:end;" transform="matrix(1 0 0 1 3036 1951)">Requires Xcode 13 or greater</text>
  <text id="descriptive-name" style="stroke:none;fill:black;font-family:sans-serif;font-size:13;text-anchor:end;" transform="matrix(1 0 0 1 3036 1969)">Generated from greetingcard</text>
  <text style="stroke:none;fill:black;font-family:sans-serif;font-size:13;text-anchor:end;" transform="matrix(1 0 0 1 3036 1987)">Typeset at 100 points</text>
  <text style="stroke:none;fill:black;font-family:sans-serif;font-size:13;" transform="matrix(1 0 0 1 263 726)">Small</text>
  <text style="stroke:none;fill:black;font-family:sans-serif;font-size:13;" transform="matrix(1 0 0 1 263 1156)">Medium</text>
  <text style="stroke:none;fill:black;font-family:sans-serif;font-size:13;" transform="matrix(1 0 0 1 263 1586)">Large</text>
 </g>
 <g id="Guides">
  <g id="H-reference" style="fill:#27AAE1;stroke:none;" transform="matrix(1 0 0 1 339 696)">
   <path d="M0.993347 0L3.6377 0L29.3282-67.1326L30.0301-67.1326L30.0301-70.459L28.1227-70.459ZM11.6882-24.4797L46.9818-24.4797L46.2311-26.7288L12.4382-26.7288ZM55.1193 0L57.7637 0L30.6381-70.459L29.4327-70.459L29.4327-67.1326Z"/>
  </g>
  <line id="Baseline-S" style="fill:none;stroke:#27AAE1;opacity:1;stroke-width:0.5;" x1="263" x2="3036" y1="696" y2="696"/>
  <line id="Capline-S" style="fill:none;stroke:#27AAE1;opacity:1;stroke-width:0.5;" x1="263" x2="3036" y1="625.541" y2="625.541"/>
  <g id="H-reference" style="fill:#27AAE1;stroke:none;" transform="matrix(1 0 0 1 339 1126)">
   <path d="M0.993347 0L3.6377 0L29.3282-67.1326L30.0301-67.1326L30.0301-70.459L28.1227-70.459ZM11.6882-24.4797L46.9818-24.4797L46.2311-26.7288L12.4382-26.7288ZM55.1193 0L57.7637 0L30.6381-70.459L29.4327-70.459L29.4327-67.1326Z"/>
  </g>
  <line id="Baseline-M" style="fill:none;stroke:#27AAE1;opacity:1;stroke-width:0.5;" x1="263" x2="3036" y1="1126" y2="1126"/>
  <line id="Capline-M" style="fill:none;stroke:#27AAE1;opacity:1;stroke-width:0.5;" x1="263" x2="3036" y1="1055.54" y2="1055.54"/>
  <g id="H-reference" style="fill:#27AAE1;stroke:none;" transform="matrix(1 0 0 1 339 1556)">
   <path d="M0.993347 0L3.6377 0L29.3282-67.1326L30.0301-67.1326L30.0301-70.459L28.1227-70.459ZM11.6882-24.4797L46.9818-24.4797L46.2311-26.7288L12.4382-26.7288ZM55.1193 0L57.7637 0L30.6381-70.459L29.4327-70.459L29.4327-67.1326Z"/>
  </g>
  <line id="Baseline-L" style="fill:none;stroke:#27AAE1;opacity:1;stroke-width:0.5;" x1="263" x2="3036" y1="1556" y2="1556"/>
  <line id="Capline-L" style="fill:none;stroke:#27AAE1;opacity:1;stroke-width:0.5;" x1="263" x2="3036" y1="1485.54" y2="1485.54"/>
  <line id="left-margin-Ultralight-S" style="fill:none;stroke:#00AEEF;stroke-width:0.5;opacity:1.0;" x1="520.126" x2="520.126" y1="600.785" y2="720.121"/>
  <line id="right-margin-Ultralight-S" style="fill:none;stroke:#00AEEF;stroke-width:0.5;opacity:1.0;" x1="599.297" x2="599.297" y1="600.785" y2="720.121"/>
  <line id="left-margin-Regular-S" style="fill:none;stroke:#00AEEF;stroke-width:0.5;opacity:1.0;" x1="1407.85" x2="1407.85" y1="600.785" y2="720.121"/>
  <line id="right-margin-Regular-S" style="fill:none;stroke:#00AEEF;stroke-width:0.5;opacity:1.0;" x1="1491.84" x2="1491.84" y1="600.785" y2="720.121"/>
  <line id="left-margin-Black-S" style="fill:none;stroke:#00AEEF;stroke-width:0.5;opacity:1.0;" x1="2887.36" x2="2887.36" y1="600.785" y2="720.121"/>
  <line id="right-margin-Black-S" style="fill:none;stroke:#00AEEF;stroke-width:0.5;opacity:1.0;" x1="2979.44" x2="2979.44" y1="600.785" y2="720.121"/>
 </g>
 <g id="Symbols">
  <g id="Black-S" transform="matrix(1 0 0 1 2887.36 696)">
   <path d="M20.9961 5.27344L64.8438 13.0371Q72.7051 14.4043 77.5146 10.0342Q82.3242 5.66406 82.3242-2.83203L82.3242-49.0723Q82.3242-56.9336 78.7109-60.9863Q75.0977-65.0391 66.6992-66.5039L24.3164-73.9746Q20.166-74.707 16.8701-73.3398Q13.5742-71.9727 11.6699-68.9697Q9.76562-65.9668 9.76562-61.7188L9.76562-7.76367Q9.76562-2.49023 12.7197 0.90332Q15.6738 4.29688 20.9961 5.27344ZM26.8066-8.88672Q25.7324-9.08203 25.3174-9.76562Q24.9023-10.4492 24.9023-11.2305L24.9023-56.0547Q24.9023-57.2266 25.5615-57.8125Q26.2207-58.3984 27.3926-58.2031L64.9414-51.5625Q66.0645-51.3672 66.626-50.7568Q67.1875-50.1465 67.1875-49.1699L67.1875-3.95508Q67.1875-2.97852 66.5771-2.46582Q65.9668-1.95312 64.9902-2.14844ZM66.2109-53.4668L78.9062-53.4668L78.9062-66.1621Q78.9062-74.4629 73.3887-78.5156Q67.8711-82.5684 58.4961-80.9082L18.7988-73.9258L22.1191-62.3047L61.8164-69.2871Q63.6719-69.6289 64.9414-68.9941Q66.2109-68.3594 66.2109-66.8945ZM28.7598-40.918Q28.7598-39.209 29.834-38.3545Q30.9082-37.5 32.3486-37.4756Q33.7891-37.4512 34.8633-38.2568Q35.9375-39.0625 35.9375-40.6738L35.9375-44.8242Q35.9375-45.5566 36.7188-45.4102L39.8438-44.873Q41.6016-44.5801 42.6758-45.4834Q43.75-46.3867 44.0186-47.7539Q44.2871-49.1211 43.6768-50.3174Q43.0664-51.5137 41.5039-51.8066L33.9355-53.125Q31.543-53.5156 30.1514-52.417Q28.7598-51.3184 28.7598-49.0234ZM56.1523-36.9141Q56.1523-35.1562 57.2266-34.2529Q58.3008-33.3496 59.7412-33.3008Q61.1816-33.252 62.2559-34.1553Q63.3301-35.0586 63.3301-36.9141L63.3301-42.3828Q63.3301-45.3125 61.8896-46.8994Q60.4492-48.4863 57.0312-49.0723L52.8809-49.8047Q51.0254-50.1465 49.9023-49.2432Q48.7793-48.3398 48.5596-46.9727Q48.3398-45.6055 49.0479-44.3848Q49.7559-43.1641 51.5625-42.8223L54.541-42.2852Q55.4688-42.1387 55.8105-41.7969Q56.1523-41.4551 56.1523-40.5273ZM35.9375-23.4375Q35.9375-25.1953 34.8633-26.0986Q33.7891-27.002 32.3486-27.0508Q30.9082-27.0996 29.834-26.1963Q28.7598-25.293 28.7598-23.4375L28.7598-17.9688Q28.7598-15.0391 30.2002-13.4521Q31.6406-11.8652 35.0586-11.2793L39.209-10.5469Q41.0645-10.2051 42.1875-11.1084Q43.3105-12.0117 43.5303-13.3789Q43.75-14.7461 43.042-15.9668Q42.334-17.1875 40.5273-17.5293L37.5488-18.0664Q36.6211-18.2129 36.2793-18.5547Q35.9375-18.8965 35.9375-19.8242ZM63.3301-19.4336Q63.3301-21.1426 62.2559-21.9971Q61.1816-22.8516 59.7412-22.876Q58.3008-22.9004 57.2266-22.0947Q56.1523-21.2891 56.1523-19.6777L56.1523-15.5273Q56.1523-14.7949 55.3711-14.9414L52.2461-15.4785Q50.4883-15.7715 49.4141-14.8682Q48.3398-13.9648 48.0713-12.5977Q47.8027-11.2305 48.4131-10.0342Q49.0234-8.83789 50.5859-8.54492L58.1543-7.22656Q60.5469-6.83594 61.9385-7.93457Q63.3301-9.0332 63.3301-11.3281Z"/>
  </g>
  <g id="Regular-S" transform="matrix(1 0 0 1 1407.85 696)">
   <path d="M17.6758 0.195312L61.4258 7.91016Q67.4316 8.98438 70.8252 5.81055Q74.2188 2.63672 74.2188-3.95508L74.2188-51.2207Q74.2188-57.373 71.1182-59.9854Q68.0176-62.5977 61.9629-63.6719L19.6289-71.0938Q16.6992-71.6309 14.4775-70.752Q12.2559-69.873 11.0107-67.8467Q9.76562-65.8203 9.76562-62.8418L9.76562-8.88672Q9.76562-5.0293 11.7676-2.75879Q13.7695-0.488281 17.6758 0.195312ZM19.3848-6.78711Q18.1152-6.98242 17.4561-7.76367Q16.7969-8.54492 16.7969-9.91211L16.7969-61.6699Q16.7969-62.9883 17.6514-63.623Q18.5059-64.2578 19.9219-64.0137L61.6211-56.6895Q64.3066-56.2012 65.7471-55.0049Q67.1875-53.8086 67.1875-51.2207L67.1875-4.78516Q67.1875-1.75781 65.5762-0.317383Q63.9648 1.12305 61.084 0.585938ZM63.7695-58.4961L70.8008-58.4961L70.8008-67.334Q70.8008-73.6816 66.7969-76.5381Q62.793-79.3945 55.7129-78.1738L15.7227-71.0938L18.4082-65.0391L58.2031-71.582Q60.8398-72.0215 62.3047-70.9717Q63.7695-69.9219 63.7695-67.627ZM21.7285-46.1426Q21.7285-44.7754 22.583-44.1162Q23.4375-43.457 24.5605-43.4326Q25.6836-43.4082 26.5381-44.0186Q27.3926-44.6289 27.3926-45.8984L27.3926-50.8301Q27.3926-52.0996 28.8086-51.8555L33.6914-51.0254Q35.0586-50.7812 35.8643-51.4893Q36.6699-52.1973 36.8408-53.2715Q37.0117-54.3457 36.5234-55.2979Q36.0352-56.25 34.8633-56.4453L26.1719-57.959Q24.0723-58.3496 22.9004-57.4463Q21.7285-56.543 21.7285-54.541ZM56.5918-40.1367Q56.5918-38.7695 57.4463-38.0615Q58.3008-37.3535 59.4238-37.3047Q60.5469-37.2559 61.4014-37.9639Q62.2559-38.6719 62.2559-40.1367L62.2559-46.6797Q62.2559-49.3164 60.9131-50.708Q59.5703-52.0996 56.4941-52.6367L52.3926-53.3691Q50.8789-53.6133 50-52.9297Q49.1211-52.2461 48.9502-51.1475Q48.7793-50.0488 49.3652-49.0967Q49.9512-48.1445 51.416-47.9004L54.541-47.3633Q56.0059-47.0703 56.2988-46.2646Q56.5918-45.459 56.5918-44.8242ZM27.3926-22.7539Q27.3926-24.0723 26.5381-24.8047Q25.6836-25.5371 24.5605-25.5859Q23.4375-25.6348 22.583-24.9268Q21.7285-24.2188 21.7285-22.7539L21.7285-16.2109Q21.7285-13.5254 23.0713-12.1582Q24.4141-10.791 27.4902-10.2539L31.6406-9.52148Q33.1055-9.22852 33.9844-9.93652Q34.8633-10.6445 35.0342-11.7432Q35.2051-12.8418 34.6191-13.7939Q34.0332-14.7461 32.6172-14.9902L29.4922-15.5273Q27.9785-15.7715 27.6855-16.6016Q27.3926-17.4316 27.3926-18.0664ZM62.2559-16.748Q62.2559-18.0664 61.4014-18.75Q60.5469-19.4336 59.4238-19.458Q58.3008-19.4824 57.4463-18.8477Q56.5918-18.2129 56.5918-16.9922L56.5918-12.0605Q56.5918-10.791 55.1758-11.0352L50.293-11.8652Q48.9258-12.1094 48.1201-11.4014Q47.3145-10.6934 47.1436-9.61914Q46.9727-8.54492 47.4609-7.59277Q47.9492-6.64062 49.1699-6.44531L57.8125-4.88281Q59.9121-4.54102 61.084-5.44434Q62.2559-6.34766 62.2559-8.34961Z"/>
  </g>
  <g id="Ultralight-S" transform="matrix(1 0 0 1 520.126 696)">
   <path d="M15.6776-1.75705L57.9292 5.68542Q63.118 6.62308 66.2617 4.03938Q69.4054 1.45569 69.4054-3.95508L69.4054-51.6296Q69.4054-55.9654 67.0315-58.3279Q64.6576-60.6903 59.6924-61.5829L18.0847-68.914Q15.4732-69.3604 13.6147-68.7992Q11.7561-68.2381 10.7609-66.7339Q9.76562-65.2298 9.76562-62.8876L9.76562-8.75015Q9.76562-5.75562 11.2-4.00734Q12.6343-2.25906 15.6776-1.75705ZM16.0248-3.92609Q13.9832-4.25797 12.9833-5.49316Q11.9835-6.72836 11.9835-8.95844L11.9835-62.487Q11.9835-64.9864 13.5193-66.1434Q15.0551-67.3004 17.7879-66.7839L59.623-59.4139Q63.5345-58.744 65.361-56.8893Q67.1875-55.0346 67.1875-51.9928L67.1875-3.96805Q67.1875 0.285339 64.7133 2.248Q62.2391 4.21066 58.223 3.49197ZM63.7695-58.7685L65.9874-58.7685L65.9874-68.2419Q65.9874-72.9095 62.9826-74.9943Q59.9777-77.079 54.5776-76.1307L14.4508-69.0048L15.0482-66.9914L55.2971-74.0341Q59.2957-74.7459 61.5326-73.1968Q63.7695-71.6476 63.7695-68.1717ZM17.778-49.3668Q17.778-48.7717 18.1103-48.4985Q18.4425-48.2254 18.8618-48.2235Q19.281-48.2216 19.5904-48.4913Q19.8997-48.761 19.8997-49.3492L19.8997-55.4161Q19.8997-58.3664 23.2689-57.8041L29.287-56.7467Q29.7913-56.6391 30.0972-56.9386Q30.4031-57.238 30.4832-57.6538Q30.5634-58.0696 30.3474-58.4312Q30.1315-58.7929 29.5502-58.8974L23.5382-59.9571Q20.9389-60.3928 19.3584-59.444Q17.778-58.4953 17.778-56.0394ZM59.2255-42.0441Q59.2255-41.5398 59.5577-41.2632Q59.89-40.9866 60.3092-40.9603Q60.7285-40.934 61.0607-41.188Q61.393-41.4421 61.393-42.0441L61.393-47.6334Q61.393-50.4517 59.7324-52.161Q58.0719-53.8704 54.5868-54.4983L51.1208-55.0949Q50.6065-55.2025 50.2724-54.9278Q49.9382-54.6532 49.8581-54.2355Q49.778-53.8177 50.0462-53.4332Q50.3143-53.0487 51.0071-52.8954L54.2686-52.3132Q56.8687-51.8837 58.0471-50.7149Q59.2255-49.5461 59.2255-47.5487ZM19.8997-20.665Q19.8997-21.1662 19.5904-21.4443Q19.281-21.7224 18.8618-21.7487Q18.4425-21.7751 18.1103-21.4985Q17.778-21.2219 17.778-20.665L17.778-15.0299Q17.778-12.2536 19.416-10.5232Q21.0541-8.79288 24.5842-8.21075L28.0075-7.61414Q28.5645-7.54852 28.8986-7.82509Q29.2328-8.10165 29.3129-8.51898Q29.393-8.93631 29.1248-9.29832Q28.8567-9.66034 28.167-9.81369L24.9062-10.3958Q22.3022-10.8215 21.101-11.9923Q19.8997-13.163 19.8997-15.1604ZM61.393-13.3423Q61.393-13.9343 61.0607-14.209Q60.7285-14.4836 60.3092-14.4855Q59.89-14.4875 59.5577-14.2159Q59.2255-13.9442 59.2255-13.3591L59.2255-7.29218Q59.2255-4.34265 55.8571-4.90494L49.884-5.96161Q49.3797-6.06995 49.0509-5.77049Q48.7221-5.47104 48.6649-5.05524Q48.6076-4.63943 48.8232-4.2778Q49.0387-3.91617 49.5789-3.81165L55.6328-2.74887Q58.1863-2.31628 59.7897-3.265Q61.393-4.21371 61.393-6.66962Z"/>
  </g>
 </g>
</svg>
